# xmcd
#
# Track frame offsets: 
#        150
#        24871
#        43222
#        57891
#        84314
#        104537
#        139844
#
# Disc length: 3202 seconds
#
# Revision: 0
# Processed by: cddbd v1.5.2PL0 Copyright (c) Steve Scherf et al.
# Submitted via: ExactAudioCopy v0.99pb5
#
DISCID=550c8007
DTITLE=Ró¿ni Wykonawcy - Festiwal Las Woda and Blues  cd2
DYEAR=2014
DGENRE=Blues
TTITLE0=01.Shoe Laces - Time
TTITLE1=02.Tandeta Blues Band - Telewizor
TTITLE2=03.Liliana and Nolens Volens - Feeling Good
TTITLE3=04.Skazani - Ten Lepszy Swiat
TTITLE4=05.Free Men - Poranny Blues
TTITLE5=06.Blues Time  - Shakin` All Over
TTITLE6=07
EXTD=
EXTT0=
EXTT1=
EXTT2=
EXTT3=
EXTT4=
EXTT5=
EXTT6=
PLAYORDER=
